<?xml version="1.0" encoding="utf-8"?>
<!-- Generator: Adobe Illustrator 20.1.0, SVG Export Plug-In . SVG Version: 6.00 Build 0)  -->
<svg version="1.1" id="Layer_1" xmlns="http://www.w3.org/2000/svg" xmlns:xlink="http://www.w3.org/1999/xlink" x="0px" y="0px"
	 viewBox="0 0 512 512" style="enable-background:new 0 0 512 512;" xml:space="preserve">
<style type="text/css">
	.st0{stroke:#FFFFFF;stroke-width:6;stroke-miterlimit:10;}
</style>
<g>
	<g>
		<path class="st0" d="M307.7,29.4h-5.3c-5.7,0-10.4,4.6-10.4,10.4s4.6,10.4,10.4,10.4h5.3c5.7,0,10.4-4.6,10.4-10.4
			C318.1,34.1,313.4,29.4,307.7,29.4z"/>
	</g>
</g>
<g>
	<g>
		<path class="st0" d="M265.5,29.4h-61.2c-5.7,0-10.4,4.6-10.4,10.4s4.6,10.4,10.4,10.4h61.2c5.7,0,10.4-4.6,10.4-10.4
			C275.9,34.1,271.2,29.4,265.5,29.4z"/>
	</g>
</g>
<g>
	<g>
		<path class="st0" d="M279.2,235.1h-46.4c-5.7,0-10.4,4.6-10.4,10.4c0,5.7,4.6,10.4,10.4,10.4h46.4c5.7,0,10.4-4.6,10.4-10.4
			S284.9,235.1,279.2,235.1z"/>
	</g>
</g>
<g>
	<g>
		<path class="st0" d="M338.2,61.1H173.8c-17.1,0-31,13.9-31,31v73.7c0,17.1,13.9,31,31,31h164.4c17.1,0,31-13.9,31-31V92.1
			C369.2,75,355.3,61.1,338.2,61.1z M227.4,176c4.5-11.4,15.5-19.3,28.6-19.3c13,0,24.1,7.9,28.6,19.3H227.4z M348.5,165.7
			c0,5.7-4.6,10.3-10.3,10.3h-32c-2.2-9.6-7.1-18.4-14.2-25.4c-9.7-9.5-22.4-14.7-36-14.7c-13.5,0-26.3,5.2-36,14.7
			c-7.2,7-12.1,15.8-14.2,25.4h-32c-5.7,0-10.3-4.6-10.3-10.3V92.1h0c0-5.7,4.6-10.3,10.3-10.3h164.4c5.7,0,10.3,4.6,10.3,10.3
			V165.7z"/>
	</g>
</g>
<g>
	<g>
		<path class="st0" d="M175.3,214c-17.6,0-32,14.4-32,32c0,17.6,14.4,32,32,32c17.6,0,32-14.4,32-32S193,214,175.3,214z
			 M175.3,257.2c-6.2,0-11.2-5-11.2-11.2c0-6.2,5-11.2,11.2-11.2c6.2,0,11.2,5,11.2,11.2S181.5,257.2,175.3,257.2z"/>
	</g>
</g>
<g>
	<g>
		<path class="st0" d="M336.7,214c-17.6,0-32,14.4-32,32s14.4,32,32,32c17.6,0,32-14.4,32-32S354.3,214,336.7,214z M336.7,257.2
			c-6.2,0-11.2-5-11.2-11.2c0-6.2,5-11.2,11.2-11.2c6.2,0,11.2,5,11.2,11.2S342.9,257.2,336.7,257.2z"/>
	</g>
</g>
<g>
	<g>
		<path class="st0" d="M470.3,501.1l-84.7-159.8h4.4c5.7,0,10.4-4.6,10.4-10.4V37.7c0-23.2-18.8-42-42-42H153.7
			c-23.2,0-42,18.8-42,42v293.2c0,5.7,4.6,10.4,10.4,10.4h4.4L41.7,501.1c-1.7,3.2-1.6,7.1,0.3,10.2c1.9,3.1,5.2,5,8.9,5h45.4
			c3.8,0,7.4-2.1,9.2-5.5l4.9-9.3h291.4l4.9,9.3c1.8,3.4,5.3,5.5,9.2,5.5h45.4c3.6,0,7-1.9,8.9-5C471.9,508.2,472,504.3,470.3,501.1
			z M132.4,37.7c0-11.7,9.5-21.3,21.3-21.3h204.6c11.7,0,21.3,9.5,21.3,21.3v282.8h-67.9v-13.9c0-14.4-11.7-26.2-26.2-26.2h-59.1
			c-14.4,0-26.2,11.8-26.2,26.2v13.9h-67.9L132.4,37.7L132.4,37.7z M316.7,341.3l8,15.1H187.3l8-15.1H316.7z M221,320.5v-13.9
			c0-3,2.4-5.4,5.4-5.4h59.1c3,0,5.4,2.4,5.4,5.4v13.9H221z M335.7,377.1l18.1,34.1H158.2l18.1-34.1H335.7z M90,495.6H68.1
			l81.8-154.3h21.9L90,495.6z M121.3,480.8l25.9-48.9h217.6l25.9,48.9H121.3z M422,495.6l-81.8-154.3h21.9l81.8,154.3H422z"/>
	</g>
</g>
</svg>
