<?xml version="1.0" encoding="utf-8"?>
<!-- Generator: Adobe Illustrator 20.1.0, SVG Export Plug-In . SVG Version: 6.00 Build 0)  -->
<svg version="1.1" id="图层_1" xmlns="http://www.w3.org/2000/svg" xmlns:xlink="http://www.w3.org/1999/xlink" x="0px" y="0px"
	 viewBox="0 0 470 470" style="enable-background:new 0 0 470 470;" xml:space="preserve">
<g>
	<path d="M273.6,367.3h-77.3c-4.1,0-7.5,3.4-7.5,7.5s3.4,7.5,7.5,7.5h77.3c4.1,0,7.5-3.4,7.5-7.5S277.8,367.3,273.6,367.3
		L273.6,367.3z"/>
	<path d="M404,190.9h-9.4V52.5c0-28.9-23.6-52.5-52.5-52.5H127.8C98.9,0,75.3,23.6,75.3,52.5v138.4H66c-11.3,0-20.5,9.2-20.5,20.5
		v50.9c0,4.1,3.4,7.5,7.5,7.5s7.5-3.4,7.5-7.5v-50.9c0-3,2.5-5.5,5.5-5.5h9.4v204.4c0,7,4.1,13,10,15.8v36.5c0,4.1,3.4,7.5,7.5,7.5
		h35.5c4.1,0,7.5-3.4,7.5-7.5v-12.3c0-4.1-3.4-7.5-7.5-7.5s-7.5,3.4-7.5,7.5v4.8h-20.5v-27.3h269.3V455h-20.5v-4.8
		c0-4.1-3.4-7.5-7.5-7.5s-7.5,3.4-7.5,7.5v12.3c0,4.1,3.4,7.5,7.5,7.5h35.5c4.1,0,7.5-3.4,7.5-7.5V426c5.9-2.8,10-8.8,10-15.8V205.9
		h9.4c3,0,5.5,2.5,5.5,5.5v50.9c0,4.1,3.4,7.5,7.5,7.5s7.5-3.4,7.5-7.5v-50.9C424.5,200.1,415.3,190.9,404,190.9L404,190.9z
		 M90.3,60h289.3v70.9H90.3V60z M127.8,15h214.3c18.1,0,33.3,12.9,36.7,30H91.1C94.6,27.9,109.7,15,127.8,15z M90.3,145.9h289.3v45
		H90.3V145.9z M379.7,410.3c0,1.4-1.1,2.5-2.5,2.5H92.8c-1.4,0-2.5-1.1-2.5-2.5V205.9h137.2v115.9H112.8c-4.1,0-7.5,3.4-7.5,7.5
		s3.4,7.5,7.5,7.5h244.3c4.1,0,7.5-3.4,7.5-7.5s-3.4-7.5-7.5-7.5H242.5V205.9h137.2V410.3z"/>
	<path d="M128.3,351.8c-12.7,0-23,10.3-23,23s10.3,23,23,23s23-10.3,23-23S141,351.8,128.3,351.8z M128.3,382.8c-4.4,0-8-3.6-8-8
		s3.6-8,8-8c4.4,0,8,3.6,8,8S132.7,382.8,128.3,382.8z"/>
	<path d="M341.7,351.8c-12.7,0-23,10.3-23,23s10.3,23,23,23s23-10.3,23-23S354.3,351.8,341.7,351.8z M341.7,382.8c-4.4,0-8-3.6-8-8
		s3.6-8,8-8s8,3.6,8,8S346.1,382.8,341.7,382.8z"/>
	<path d="M364.7,168.4c0-4.1-3.4-7.5-7.5-7.5H112.8c-4.1,0-7.5,3.4-7.5,7.5s3.4,7.5,7.5,7.5h244.3
		C361.3,175.9,364.7,172.5,364.7,168.4z"/>
</g>
<rect x="120.8" y="426" width="15" height="25.2"/>
<rect x="334.2" y="426" width="15" height="25.2"/>
</svg>
